<?xml version="1.0" encoding="UTF-8"?>
<!DOCTYPE svg PUBLIC "-//W3C//DTD SVG 1.1//EN" "http://www.w3.org/Graphics/SVG/1.1/DTD/svg11.dtd">
<!-- Creator: CorelDRAW -->
<svg xmlns="http://www.w3.org/2000/svg" xml:space="preserve" width="297mm" height="210mm" version="1.1" style="shape-rendering:geometricPrecision; text-rendering:geometricPrecision; image-rendering:optimizeQuality; fill-rule:evenodd; clip-rule:evenodd"
viewBox="0 0 29700 21000"
 xmlns:xlink="http://www.w3.org/1999/xlink"
 xmlns:xodm="http://www.corel.com/coreldraw/odm/2003">
 <defs>
  <style type="text/css">
   <![CDATA[
    .fil0 {fill:white}
    .fil3 {fill:#2354B7}
    .fil4 {fill:#4092DA}
    .fil6 {fill:#458FCC}
    .fil1 {fill:#2354B7;fill-rule:nonzero}
    .fil5 {fill:#2B4F9F;fill-rule:nonzero}
    .fil2 {fill:#4092DA;fill-rule:nonzero}
   ]]>
  </style>
 </defs>
 <g id="Layer_x0020_1">
  <metadata id="CorelCorpID_0Corel-Layer"/>
  <path class="fil0" d="M13515.2 10029.94c37.58,37.58 58.7,88.56 58.7,141.73 0,110.67 -89.74,200.43 -200.42,200.43 -110.7,0 -200.43,-89.76 -200.43,-200.43 0,-110.68 89.73,-200.42 200.43,-200.42 53.17,0 104.11,21.11 141.72,58.69z"/>
  <path class="fil1" d="M7786.37 12601.46l2644.38 0.49c18.06,37.85 42.56,72.26 72.09,101.76 33.53,33.53 73.54,60.56 117.9,78.98l2.84 1.16c-16.29,11.44 -36.13,18.16 -57.53,18.16 -2.99,0 -5.94,-0.13 -8.86,-0.39l-2868.17 -0.54c-55.11,1.27 -100.84,-42.36 -102.12,-97.47 -0.75,-31.1 -1.13,-414.56 -1.13,-794.11 0,-382.79 0.38,-772.86 1.13,-804.08 6.01,-248.85 48.28,-493.98 129.93,-705.04 77.1,-199.27 189.33,-369.21 339.5,-485.9l2074.65 -1612.63c155.07,-120.53 244.75,-173.96 328.62,-178.15 102.73,-5.16 156.05,47.85 245.87,137.68 73.98,74 116.79,149.98 109.23,240.47 -7.05,84.34 -59.29,167.89 -173.91,257.03 -1.85,1.44 -3.75,2.8 -5.66,4.09l-779.67 605.06 -7.85 0.1 -14.34 0.19c-39.84,0.51 -76,5.8 -108.62,15.67 -33.89,10.26 -64.8,25.64 -92.85,45.91 -29.07,21.01 -53.4,46.02 -73.24,74.87 -19.62,28.54 -34.78,60.39 -45.71,95.42l0.15 0.05 -0.44 1.31 -0.99 2.5c-3.65,12.81 -6.67,25.43 -9.07,37.89l-1034.19 802.57 0.14 0.19c-58.6,45.57 -102.62,126.47 -135.04,221.12 -46.3,135.12 -67.53,293.93 -73.89,426.28 -1.02,21.09 -1.68,223.89 -2.02,454.85 -0.33,229.07 -0.37,485.75 -0.14,622.64l273.45 -0.01c-0.32,-69.85 -0.58,-168.4 -0.79,-277.66 -0.65,-327.5 -0.84,-752.14 -0.58,-775.08 1.04,-91.91 9.1,-180.1 25.13,-255.79 16.24,-76.62 41.09,-143.33 75.69,-193.07 5.93,-8.54 12.95,-15.85 20.75,-21.92l-0.01 0 712.05 -553.47c43.67,-33.94 106.59,-26.06 140.53,17.61 33.94,43.67 26.06,106.59 -17.61,140.53l-698.48 542.91c-15.4,26.79 -27.75,64.28 -37.21,108.89 -13.53,63.87 -20.32,138.3 -21.2,215.88 -0.25,22.88 -0.06,446.63 0.58,773.51 0.39,196.71 0.95,358 1.68,372.4l-0.12 0.01c0.08,1.68 0.12,3.37 0.12,5.07 0,55.13 -44.69,99.82 -99.82,99.82l-471.23 0.01c-55.13,1.29 -100.88,-42.34 -102.16,-97.47 -0.63,-23.47 -0.75,-401.48 -0.27,-724.81 0.34,-236.22 1.01,-443.39 2.01,-464.26 7.13,-148.08 31.23,-326.82 84.08,-481.07 44.21,-129.05 109.03,-243.08 201.58,-315.06l0.16 0.19 0.23 -0.19 2166.7 -1681.45c1.69,-1.51 3.44,-2.96 5.25,-4.37 65.83,-51.2 94.89,-87.8 97.19,-115.33 1.78,-21.38 -18.02,-49.04 -51.3,-82.33 -50.59,-50.59 -80.5,-80.45 -94.76,-79.74 -33.15,1.65 -94.39,42.82 -215.1,136.66l-2074.66 1612.62c-120.32,93.51 -211.77,233.57 -276.08,399.79 -73.2,189.22 -111.14,411.04 -116.62,637.71 -0.22,9.45 -0.34,402.37 -0.34,799.38 0,277.31 0.06,551.12 0.17,691.96zm4155.56 0.47l2644.89 -1c0.23,-133.67 0.36,-386.12 0.39,-645.22 0.05,-400.33 -0.12,-816.62 -0.5,-835.93 -4.6,-228.12 -42.22,-452.16 -115.74,-643.84 -64.4,-167.91 -156.21,-309.3 -277.15,-403.32l-2074.67 -1612.62c-43.66,-33.95 -51.55,-96.87 -17.61,-140.53 33.95,-43.67 96.86,-51.56 140.53,-17.62l2074.66 1612.63c151.45,117.72 264.28,289.25 341.36,490.22 81.5,212.5 123.19,459.92 128.26,711.18 0.39,19.31 0.56,437.57 0.5,839.83 -0.05,371.53 -0.3,729.44 -0.73,747.35 -1.29,55.11 -46.99,98.72 -102.08,97.48l-2869.62 1.08c-2.93,0.26 -5.88,0.39 -8.88,0.39 -21.23,0 -40.93,-6.62 -57.14,-17.89l3.52 -1.43c44.36,-18.42 84.37,-45.45 117.9,-78.98 29.54,-29.51 54.04,-63.91 72.11,-101.78zm2085.17 -2315.37c43.67,33.72 51.72,96.47 18,140.14 -33.72,43.66 -96.46,51.72 -140.13,18l-1034.93 -803.36c-2.39,-12.26 -5.36,-24.69 -8.95,-37.29l-1 -2.5 -0.43 -1.31 0.14 -0.05c-10.94,-35.03 -26.09,-66.88 -45.71,-95.42 -19.84,-28.85 -44.18,-53.86 -73.24,-74.87 -28.05,-20.28 -58.96,-35.65 -92.85,-45.91 -32.63,-9.88 -68.79,-15.16 -108.62,-15.67l-14.32 -0.19 -7.12 -0.1 -785.02 -609.37c-43.67,-33.72 -51.73,-96.46 -18.01,-140.13 33.72,-43.67 96.47,-51.73 140.14,-18.01l2172.05 1686.04zm87.29 824.89c-1.95,-55.13 41.17,-101.4 96.29,-103.35 55.13,-1.94 101.4,41.17 103.35,96.3 0.73,19.34 1.21,277.74 1.37,546.84 0.16,293.49 -0.04,599.67 -0.7,620.9 -1.48,54.22 -45.92,97.14 -99.82,97.12l0 0.36 -473.37 0c-55.34,0 -100.21,-44.88 -100.21,-100.22 0,-3.55 0.19,-7.06 0.55,-10.52 0.66,-32.6 1.16,-184.73 1.52,-367.32 0.63,-326.84 0.83,-750.32 0.58,-773.19 -0.89,-77.58 -7.69,-152.02 -21.23,-215.88 -9.44,-44.59 -21.79,-82.07 -37.18,-108.84l-978.73 -760.77 61.64 -20.36 -0.03 -0.07 5.33 -1.75 4.31 -1.42 4.19 -2.08 7.37 -3.65c37,-18.31 69.22,-40.62 96.22,-67.21 3.4,-3.35 6.71,-6.77 9.94,-10.25l926.25 719.97 -0.01 0c7.8,6.07 14.82,13.38 20.75,21.92 34.59,49.73 59.44,116.44 75.67,193.02 16.04,75.68 24.09,163.88 25.15,255.8 0.26,22.94 0.06,447.29 -0.58,774.76 -0.21,109.19 -0.48,207.72 -0.78,277.63l273.32 0c0.25,-116.72 0.31,-320.25 0.21,-517.95 -0.15,-265.39 -0.63,-520.38 -1.37,-539.79z"/>
  <path class="fil1" d="M12617.83 8593.5c43.67,33.94 51.56,96.86 17.61,140.53 -33.94,43.67 -96.86,51.55 -140.53,17.61l-375.49 -291.87c-120.72,-93.83 -181.95,-134.99 -215.1,-136.64 -14.24,-0.71 -44.17,29.14 -94.76,79.73 -33.29,33.29 -53.09,60.94 -51.3,82.32 2.29,27.53 31.35,64.15 97.18,115.34 1.81,1.41 3.56,2.87 5.25,4.38l371.64 288.41c43.67,33.72 51.72,96.46 18,140.13 -33.72,43.67 -96.47,51.73 -140.14,18.01l-372 -288.69c-1.92,-1.29 -3.81,-2.65 -5.67,-4.1 -114.61,-89.14 -166.86,-172.7 -173.9,-257.04 -7.55,-90.48 35.23,-166.48 109.24,-240.46 89.83,-89.83 143.12,-142.83 245.87,-137.68 83.85,4.19 173.54,57.62 328.61,178.15l375.49 291.87z"/>
  <path class="fil2" d="M12602.2 10626.16c-43.67,-33.94 -51.56,-96.87 -17.62,-140.54 33.94,-43.67 96.87,-51.56 140.54,-17.62l598.41 465.12c24.5,19.04 37.73,47.19 38.65,75.96 4.4,58.26 7.31,256.32 8.88,479.56 2.4,339.17 2.23,740.25 -0.26,785.81 -2.72,53.42 -46.92,94.92 -99.82,94.87l0 0.26 -1006.12 0c-55.34,0 -100.21,-44.87 -100.21,-100.21l0 -364c0,-55.34 44.87,-100.21 100.21,-100.21 2.98,0 5.93,0.14 8.84,0.39l377.88 0.01 -1.03 -543.22 -837.87 -652.21 -24.45 -272.86 1023.5 796.7 -0.2 0.26c23.47,18.27 38.56,46.78 38.56,78.82l1.32 692.33c0,55.13 -44.7,99.82 -99.82,99.82l-386.51 0 0 163.95 807.51 0c0.95,-146.49 0.6,-430.1 -1.17,-679.72 -1.33,-187.22 -3.31,-354.06 -5.87,-425.4l-563.35 -437.87zm-2075.47 6.06l-811.88 627.59 5.61 545.71 380.81 0.02c55.13,0 99.82,44.69 99.82,99.82l0.39 0 0 363c0,55.34 -44.87,100.21 -100.21,100.21 -2.95,0 -5.86,-0.13 -8.75,-0.38l-990.39 1c-53.3,0 -96.84,-41.77 -99.68,-94.35l-0.14 0.01c-2.5,-45.55 -2.67,-446.53 -0.27,-785.77 1.75,-247.16 5.11,-463.54 10.36,-493.68 4.38,-25.67 18.18,-47.36 37.25,-62.17l-0.06 -0.08 1022.22 -794.57 226.48 77.65 -1090.73 847.83c-2.56,71.39 -4.54,238.42 -5.88,425.8 -1.76,249.75 -2.11,533.43 -1.15,679.58l800.52 -0.8 0 -163.47 -379.4 -0.02c-54.77,0.01 -99.39,-44.17 -99.82,-99.03l-7.09 -689.85c-1.61,-31.61 11.77,-63.46 38.71,-84.27l992.66 -767.34 -19.38 267.56z"/>
  <path class="fil3" d="M9566.23 10029.94c37.59,37.58 58.71,88.56 58.71,141.73 0,110.67 -89.74,200.43 -200.42,200.43 -110.7,0 -200.44,-89.76 -200.44,-200.43 0,-110.68 89.74,-200.42 200.44,-200.42 53.16,0 104.11,21.11 141.71,58.69z"/>
  <path class="fil4" d="M12805.32 10405.39c37.61,37.58 58.72,88.55 58.72,141.71 0,110.69 -89.73,200.42 -200.41,200.42 -110.7,0 -200.44,-89.73 -200.44,-200.42 0,-110.68 89.74,-200.43 200.44,-200.43 53.14,0 104.12,21.13 141.69,58.72z"/>
  <path class="fil3" d="M14355.93 10966.2c37.6,37.59 58.71,88.57 58.71,141.73 0,110.69 -89.73,200.42 -200.44,200.42 -110.68,0 -200.42,-89.73 -200.42,-200.42 0,-110.7 89.74,-200.43 200.42,-200.43 53.17,0 104.15,21.11 141.73,58.7z"/>
  <path class="fil3" d="M14107.77 10223.9c37.59,37.62 58.7,88.59 58.7,141.74 0,110.69 -89.74,200.43 -200.44,200.43 -110.68,0 -200.42,-89.74 -200.42,-200.43 0,-110.69 89.74,-200.42 200.42,-200.42 53.17,0 104.15,21.11 141.74,58.68z"/>
  <path class="fil5" d="M11178.74 9415.77c84.95,0 161.99,-35.53 217.79,-92.9 56.47,-58.07 91.47,-138.67 91.47,-227.88 0,-89.22 -34.98,-169.81 -91.47,-227.88 -55.79,-57.35 -132.84,-92.89 -217.79,-92.89 -84.91,0 -161.93,35.54 -217.7,92.89 -56.46,58.06 -91.44,138.66 -91.44,227.88 0,89.22 34.98,169.82 91.44,227.88 55.77,57.37 132.79,92.9 217.7,92.9zm361.04 46.45c-92.48,95.08 -220.19,153.98 -361.04,153.98 -140.82,0 -268.51,-58.9 -360.96,-153.98 -91.77,-94.37 -148.61,-224.31 -148.61,-367.23 0,-142.92 56.84,-272.85 148.61,-367.23 92.46,-95.07 220.14,-153.97 360.96,-153.97 140.85,0 268.57,58.89 361.04,153.97 91.8,94.37 148.65,224.29 148.65,367.23 0,142.93 -56.86,272.86 -148.65,367.23z"/>
  <path class="fil5" d="M12488.9 9645.03l-794.39 208.4 -13.43 3.52 -11.62 0 -966.28 0 -11.61 0 -13.44 -3.52 -794.39 -208.4c-14.67,1.31 -25.48,4.72 -32.74,10.1 -7.74,5.75 -13.91,16.26 -18.72,31.17l0.05 0.02c-7.38,26.68 -7.97,45.97 -2.56,58.71 4.13,9.74 14.2,18.79 29.46,27.18l917.68 323.53 71.88 25.34 -5.34 75.65 -156.03 2213.89c0.25,26.95 10.71,51.05 27.47,68.27 16.27,16.73 38.76,27.09 63.54,27.09l0 0.38 0.68 0 0 -0.02 3.02 -0.08 4.69 0 3.02 0.08 0 0.02 0.69 0 0 -0.38c24.8,0 47.3,-10.36 63.57,-27.09 16.97,-17.44 27.49,-41.92 27.49,-69.26l0 -10.65 3.14 -12.84 204.52 -835.97 97.07 -396.79 97.07 396.79 204.52 835.97 3.14 12.84 0 10.65c0,27.34 10.52,51.82 27.49,69.26 16.27,16.73 38.77,27.09 63.57,27.09l0 0.38 0.69 0 0 -0.02 3.02 -0.08 4.69 0 3.02 0.08 0 0.02 0.68 0 0 -0.38c24.79,0 47.28,-10.37 63.54,-27.09 16.25,-16.7 26.58,-39.87 27.42,-65.82l-192.89 -2213.77 -6.79 -78.02 74.52 -25.32 953.83 -323.98c15.02,-8.33 24.94,-17.3 29.03,-26.95 5.41,-12.74 4.82,-32.03 -2.56,-58.71l0.04 -0.01c-4.8,-14.9 -10.97,-25.43 -18.72,-31.18 -7.25,-5.38 -18.07,-8.79 -32.73,-10.1zm-831.06 11.49l795.15 -208.59 12.65 -3.31 13.58 0.18c64.98,0.87 118.34,17.84 161.4,49.84 44.04,32.72 73.97,78.38 91.5,136.09l0.78 2.35c20.05,72.51 17.16,135.57 -6.05,190.24 -24.07,56.7 -67.34,99.36 -127.22,129.82l-5.65 2.88 -7.66 2.59 -887.59 301.49 186.53 2140.92 0.4 8.61c0,81.08 -32.39,154.9 -84.65,208.61 -52.97,54.46 -126.13,88.17 -206.8,88.17l-0.78 -0.39 -3.03 -0.04 -1.56 0 -0.68 -0.02 -0.67 0.02 -1.56 0 -3.03 0.04 -0.79 0.39c-80.68,0 -153.85,-33.72 -206.83,-88.17 -49.79,-51.15 -81.52,-120.52 -84.44,-197.05l-104.52 -427.24 -104.52 427.24c-2.92,76.53 -34.65,145.9 -84.44,197.05 -52.98,54.46 -126.15,88.17 -206.83,88.17l-0.79 -0.39 -3.03 -0.04 -1.56 0 -0.67 -0.02 -0.68 0.02 -1.56 0 -3.03 0.04 -0.78 0.39c-80.68,0 -153.84,-33.72 -206.8,-88.17 -52.26,-53.71 -84.65,-127.53 -84.65,-208.61l0.4 -6.65 151.1 -2143.91 -853.34 -300.85 -6.95 -2.45 -5.18 -2.63c-59.89,-30.46 -103.15,-73.12 -127.22,-129.82 -23.21,-54.67 -26.12,-117.73 -6.05,-190.24l0.78 -2.35c17.51,-57.71 47.45,-103.36 91.49,-136.09 43.07,-31.99 96.42,-48.97 161.41,-49.84l13.59 -0.18 12.64 3.31 795.15 208.59 943.04 0z"/>
  <g id="_105828197811104">
   <path class="fil6" d="M8162.49 6747.81l91.12 0 0 613.46 339.3 0 0 -613.46 90.63 0 0 611.52 72.25 0 -8.39 241.9 -81.76 0 0 -165.46 -503.15 0 0 -687.96zm1138.22 0l90.63 0 0 687.96 -90.63 0 0 -530.08 -338.82 530.08 -91.12 0 0 -687.96 91.12 0 0 530.08 338.82 -530.08zm595.4 69.67l14.67 0c51.93,0.32 99.34,12.41 142.24,36.28 42.89,23.87 76.11,56.77 99.98,98.86 23.7,41.93 35.64,88.86 35.64,140.62 0,52.25 -11.94,99.5 -35.96,141.92 -23.87,42.41 -56.93,75.47 -99.18,99.18 -42.25,23.86 -89.18,35.95 -140.78,36.6l-16.61 0 0 92.89 -87.9 0 0 -92.89 -13.22 0c-52.57,0 -100.31,-11.94 -143.36,-35.8 -42.91,-23.87 -76.28,-56.93 -100.15,-99.02 -23.7,-42.09 -35.64,-89.5 -35.64,-141.91 0,-52.42 11.94,-99.82 35.64,-141.91 23.87,-42.09 57.24,-75.16 100.15,-99.02 43.05,-23.87 90.79,-35.8 143.36,-35.8l13.22 0 0 -97.73 87.9 0 0 97.73zm-101.12 71.6c-59.18,0 -105.95,18.06 -140.46,54.34 -34.52,36.29 -51.77,86.61 -51.77,150.95 0,64.83 17.1,115.15 51.44,151.11 34.35,35.96 81.61,53.86 141.76,53.86l12.25 0 0 -410.26 -13.22 0zm101.12 0l0 410.26 13.22 0c60.15,0 107.24,-18.38 141.1,-55.31 33.88,-36.94 50.8,-87.09 50.8,-150.47 0,-62.89 -16.92,-112.56 -50.8,-149.33 -33.86,-36.76 -81.43,-55.15 -142.87,-55.15l-11.45 0zm497.83 277.7l0 268.99 -90.63 0 0 -687.96 253.67 0c75.3,0 134.17,19.19 176.9,57.73 42.74,38.39 64.03,89.34 64.03,152.72 0,66.77 -20.81,118.21 -62.57,154.34 -41.78,36.11 -101.61,54.18 -179.34,54.18l-162.06 0zm0 -74.51l163.04 0c48.54,0 85.63,-11.45 111.43,-34.34 25.8,-22.74 38.7,-55.8 38.7,-99.02 0,-40.96 -12.9,-73.7 -38.7,-98.37 -25.8,-24.51 -61.28,-37.25 -106.27,-38.23l-168.2 0 0 269.96zm1048.71 21.78c0,67.4 -11.29,126.27 -34.03,176.58 -22.57,50.32 -54.67,88.7 -96.28,115.15 -41.6,26.44 -90.14,39.67 -145.62,39.67 -54.18,0 -102.08,-13.39 -144.01,-40 -41.93,-26.61 -74.5,-64.5 -97.57,-113.85 -23.21,-49.35 -34.99,-106.44 -35.63,-171.43l0 -49.66c0,-66.12 11.44,-124.66 34.51,-175.47 22.9,-50.64 55.47,-89.5 97.56,-116.43 41.93,-26.93 90.15,-40.48 144.34,-40.48 54.99,0 103.69,13.39 145.62,39.99 42.09,26.62 74.51,65.16 97.08,115.8 22.74,50.64 34.03,109.49 34.03,176.59l0 43.54zm-90.15 -44.52c0,-81.43 -16.44,-144.01 -49.18,-187.55 -32.74,-43.7 -78.54,-65.47 -137.4,-65.47 -57.42,0 -102.57,21.77 -135.47,65.47 -32.89,43.54 -49.83,104.02 -50.79,181.43l0 50.64c0,79.02 16.61,141.11 49.83,186.26 33.21,45.15 79.01,67.73 137.23,67.73 58.7,0 104.02,-21.29 136.11,-64.03 32.09,-42.57 48.7,-103.68 49.67,-183.35l0 -51.13zm226.26 366.24l0 -687.96 224.97 0c74.66,0 130.78,15.49 168.36,46.44 37.57,30.8 56.44,76.61 56.44,137.25 0,32.09 -9.03,60.63 -27.41,85.3 -18.23,24.84 -43.07,44.03 -74.67,57.57 37.25,10.32 66.6,30.16 88.21,59.19 21.61,29.19 32.25,63.86 32.25,104.01 0,61.77 -19.99,110.15 -59.99,145.31 -39.99,35.31 -96.44,52.89 -169.49,52.89l-238.67 0zm90.79 -320.27l0 245.77 149.65 0c42.26,0 75.64,-10.81 99.99,-32.58 24.35,-21.77 36.61,-51.77 36.61,-89.82 0,-82.25 -45,-123.37 -135.14,-123.37l-151.11 0zm0 -74.51l136.92 0c39.66,0 71.44,-10 95.3,-29.84 23.71,-19.83 35.64,-46.6 35.64,-80.63 0,-37.89 -11.12,-65.3 -33.06,-82.4 -22.09,-17.26 -55.63,-25.81 -100.62,-25.81l-134.18 0 0 218.68zm1040.65 73.06c0,67.4 -11.28,126.27 -34.02,176.58 -22.58,50.32 -54.68,88.7 -96.28,115.15 -41.61,26.44 -90.15,39.67 -145.63,39.67 -54.18,0 -102.08,-13.39 -144.01,-40 -41.92,-26.61 -74.5,-64.5 -97.56,-113.85 -23.22,-49.35 -35,-106.44 -35.64,-171.43l0 -49.66c0,-66.12 11.45,-124.66 34.51,-175.47 22.9,-50.64 55.48,-89.5 97.57,-116.43 41.93,-26.93 90.14,-40.48 144.33,-40.48 54.99,0 103.7,13.39 145.62,39.99 42.1,26.62 74.51,65.16 97.09,115.8 22.74,50.64 34.02,109.49 34.02,176.59l0 43.54zm-90.15 -44.52c0,-81.43 -16.44,-144.01 -49.18,-187.55 -32.74,-43.7 -78.54,-65.47 -137.4,-65.47 -57.41,0 -102.57,21.77 -135.47,65.47 -32.89,43.54 -49.83,104.02 -50.79,181.43l0 50.64c0,79.02 16.61,141.11 49.83,186.26 33.21,45.15 79.02,67.73 137.23,67.73 58.71,0 104.02,-21.29 136.11,-64.03 32.09,-42.57 48.71,-103.68 49.67,-183.35l0 -51.13zm660.07 -321.72l90.63 0 0 687.96 -90.63 0 0 -530.08 -338.82 530.08 -91.12 0 0 -687.96 91.12 0 0 530.08 338.82 -530.08zm-25.32 -172.23c0,38.38 -13.07,69.34 -39.03,92.72 -25.97,23.39 -60.15,35 -102.24,35 -42.25,0 -76.44,-11.77 -102.57,-35.31 -26.12,-23.39 -39.19,-54.35 -39.19,-92.41l71.28 0c0,22.09 5.97,39.34 17.91,51.93 12.09,12.41 29.51,18.7 52.57,18.7 21.93,0 39.18,-6.12 51.61,-18.55 12.57,-12.25 18.7,-29.66 18.7,-52.08l70.96 0z"/>
   <path class="fil6" d="M14043.71 7435.77l0 -241.89 -95.3 0 -116.28 241.89 -179.97 0 141.27 -298.02c-61.44,-39.99 -92.24,-98.7 -92.24,-176.1 0,-68.06 22.41,-120.62 67.08,-157.88 44.83,-37.25 109.18,-55.96 193.36,-55.96l248.51 0 0 687.96 -166.43 0zm-177.07 -459.61c0,34.99 7.1,60.32 21.29,76.12 14.19,15.64 37.9,23.54 71.28,23.54l84.5 0 0 -200.29 -83.53 0c-33.06,0 -56.93,8.55 -71.6,25.8 -14.68,17.1 -21.94,42.09 -21.94,74.83z"/>
  </g>
  <path class="fil6" d="M8188.53 14024.22l-83.7 0 0 310.59 -90.63 0 0 -687.96 90.63 0 0 302.86 70.8 0 240.61 -302.86 112.88 0 -262.7 332.7 282.06 355.26 -110.96 0 -248.99 -310.59zm538.15 -96.76l170.93 0c71.93,0.96 127.89,19.35 168.2,55.31 40.32,35.96 60.48,84.66 60.48,146.43 0,62.09 -20.32,111.6 -60.95,148.36 -40.64,36.94 -95.96,55.97 -166.27,57.25l-263.19 0 0 -687.96 90.8 0 0 280.61zm0 74.5l0 258.35 165.77 0c45,0 80.16,-11.94 105.15,-35.97 25,-23.86 37.57,-55.95 37.57,-96.27 0,-38.7 -12.09,-69.34 -36.11,-91.6 -24.2,-22.42 -58.38,-33.87 -102.9,-34.51l-169.48 0zm573.45 332.85l-90.63 0 0 -687.96 90.63 0 0 687.96zm258.84 -268.99l0 268.99 -90.63 0 0 -687.96 253.67 0c75.31,0 134.17,19.19 176.9,57.73 42.74,38.39 64.03,89.35 64.03,152.72 0,66.77 -20.8,118.21 -62.57,154.34 -41.77,36.12 -101.6,54.18 -179.33,54.18l-162.07 0zm0 -74.5l163.04 0c48.54,0 85.63,-11.46 111.43,-34.35 25.81,-22.74 38.71,-55.8 38.71,-99.02 0,-40.96 -12.9,-73.7 -38.71,-98.37 -25.8,-24.51 -61.28,-37.25 -106.27,-38.22l-168.2 0 0 269.96zm946.31 -269.96l-331.73 0 0 613.45 -91.11 0 0 -687.96 422.84 0 0 74.51zm206.58 206.1l170.94 0c71.92,0.96 127.88,19.35 168.2,55.31 40.31,35.96 60.47,84.66 60.47,146.43 0,62.09 -20.32,111.6 -60.95,148.36 -40.64,36.94 -95.96,55.97 -166.27,57.25l-263.19 0 0 -687.96 90.8 0 0 280.61zm0 74.5l0 258.35 165.77 0c45,0 80.16,-11.94 105.15,-35.97 25,-23.86 37.58,-55.95 37.58,-96.27 0,-38.7 -12.09,-69.34 -36.12,-91.6 -24.2,-22.42 -58.38,-33.87 -102.89,-34.51l-169.49 0zm573.45 332.85l-90.63 0 0 -687.96 90.63 0 0 687.96zm520.9 -503.47c0,-36.6 -13.39,-65.63 -40,-87.24 -26.6,-21.62 -64.02,-32.42 -112.24,-32.42 -40.31,0 -74.02,11.13 -101.28,33.38 -27.25,22.26 -40.8,49.68 -40.8,82.57l-90.78 0c0,-36.6 9.99,-69.34 29.99,-98.37 20,-28.87 47.89,-51.61 83.86,-67.73 35.96,-16.29 75.63,-24.35 119.01,-24.35 76.92,0 136.59,17.25 179.17,51.76 42.41,34.52 63.7,82.41 63.7,143.85 0,31.94 -9.67,60.8 -29.19,87.08 -19.51,26.13 -46.76,46.78 -81.76,61.77 80.95,27.25 121.43,80.96 121.43,161.27 0,61.92 -23.06,110.95 -69.02,147.24 -45.96,36.28 -107.41,54.34 -184.33,54.34 -45.64,0 -87.09,-8.06 -124.49,-24.35 -37.26,-16.13 -66.28,-39.35 -87.09,-69.18 -20.81,-30 -31.12,-65.48 -31.12,-106.76l90.63 0c0,35.96 14.35,65.96 43.06,89.82 28.54,24.03 64.99,35.96 109.01,35.96 49.51,0 89.02,-11.45 118.37,-34.51 29.51,-22.89 44.19,-53.22 44.19,-90.95 0,-80.64 -49.83,-121.59 -149.82,-123.2l-84.99 0 0 -74.51 84.67 0c45.96,-0.97 80.79,-11.29 104.34,-31.29 23.71,-19.84 35.48,-47.89 35.48,-84.18zm727.3 285.44c-8.54,72.74 -35.31,128.85 -80.63,168.37 -45.15,39.5 -105.14,59.34 -180.13,59.34 -81.28,0 -146.43,-29.19 -195.46,-87.41 -48.86,-58.38 -73.38,-136.43 -73.38,-234.15l0 -66.12c0,-64.03 11.29,-120.31 34.19,-168.85 22.91,-48.54 55.16,-85.79 97.09,-111.76 41.92,-25.96 90.47,-39.02 145.46,-39.02 73.21,0 131.76,20.32 175.78,61.11 44.18,40.81 69.82,97.25 77.08,169.5l-91.28 0c-7.73,-54.99 -24.82,-94.67 -51.11,-119.18 -26.45,-24.67 -63.22,-36.93 -110.47,-36.93 -57.9,0 -103.37,21.45 -136.27,64.35 -32.9,42.73 -49.35,103.85 -49.35,182.87l0 66.6c0,74.83 15.64,134.18 46.77,178.37 31.29,44.02 74.83,66.11 130.95,66.11 50.31,0 89.02,-11.45 115.94,-34.18 26.94,-22.74 44.84,-62.41 53.54,-119.02l91.28 0zm585.24 -395.42l-221.1 0 0 613.45 -90.15 0 0 -613.45 -220.61 0 0 -74.51 531.86 0 0 74.51zm444.77 433.48l-288.19 0 -64.83 179.97 -93.53 0 262.7 -687.96 79.34 0 263.19 687.96 -93.05 0 -65.63 -179.97zm-260.93 -74.51l233.99 0 -117.24 -321.56 -116.75 321.56zm1040.81 254.48l-91.12 0 0 -317.37 -346.72 0 0 317.37 -90.79 0 0 -687.96 90.79 0 0 296.09 346.72 0 0 -296.09 91.12 0 0 687.96z"/>
 </g>
</svg>
